<svg xmlns="http://www.w3.org/2000/svg" viewBox="0 0 1424.12 325.27"><defs><style>.cls-1{fill:#323232;}.cls-2{fill:none;}.cls-3{fill:#e29439;}</style></defs><title>Asset 1</title><g id="Layer_2" data-name="Layer 2"><g id="Layer_1-2" data-name="Layer 1"><g id="HWmyw0.tif"><g id="Suci0j.tif"><path class="cls-1" d="M349.49,229.66l-.88,2.26a3.64,3.64,0,0,0-2.19,3.67l-.62,1.45c-2.34.7-2.18,2.74-2.43,4.57l-.47.53c-2.23.65-1.73,2.71-2.2,4.27l-1.58,2.05a87.56,87.56,0,0,0-6,10.34c-2.16.7-2.14,2.89-2.48,4.27-2.39,2.78-3.51,5.78-5.49,8.53l-7.38-13.32-.29.18-1-3.5-1.7-1.25c-.53-1.18-.91-2.2-1.43-3.13-2.19-3.93-4.45-7.83-6.62-11.77-1.95-3.53-3.78-7.13-5.73-10.66s-4.19-7.28-6.19-11-3.77-7.91-6.09-11.59-4.26-7.9-6.49-11.79c-2.37-4.14-4.74-8.29-6.92-12.53-1.09-2.12-2.75-4-3.37-6.25-.68-2.49-2.62-3.88-4-5.79-1.92.91-1.41,2.5-1.41,3.8q-.05,50.75,0,101.49,0,12.25,0,24.5c0,1.3,0,2.53-1.51,3.16a5.27,5.27,0,0,1-.67.08H141.83a6.45,6.45,0,0,1-4.3-1.35V3.14l2.3-3H290.07c4.31,0,7,1.72,8.51,5.84s4,8.12,5.88,12.2c2.31,4.91,4.92,9.7,7.4,14.54,1,2,1.85,4.05,3,6,2.39,4.14,4.36,8.49,6.55,12.72,1.13,2.19,2,4.61,4.38,7.06,9.16-19.55,17-39.09,25.53-57.84A8,8,0,0,1,355,.18l166,0c.74,0,1.48-.1,2.22-.15a2.37,2.37,0,0,1,.84,2.21q0,19.16,0,38.32a5.15,5.15,0,0,1-.19,1c-3.68,2.49-7.34,5-11.07,7.42a118,118,0,0,0-15.23,11.73C487,70.19,477.15,80.53,469.33,92.5c-4,6.12-8.12,12.22-11,19.07a45.63,45.63,0,0,1-2.95,6,46.19,46.19,0,0,0-3.81,8.83c-1.24,3.57-2.55,7.15-3.6,10.81a162.55,162.55,0,0,0-4.34,17c-.3,1.71,0,3.54-.76,5.16a18.83,18.83,0,0,0-1.4,7.28c-.2,3.65-.22,7.32-.62,11a83,83,0,0,0-.15,15.7c.59,7.41,1,14.81,2.49,22.19,1.11,5.34,2.43,10.67,3.68,16,.66,2.82,1.23,5.88,2.55,8.51,1.84,3.64,2.63,7.65,4.45,11.29,2,4.07,3.64,8.36,5.86,12.31,2.71,4.81,5.47,9.6,8.65,14.15a170.27,170.27,0,0,0,11.43,15.22c2.33,2.65,4.55,5.39,6.77,8-.42.82-.83,1.24-1.47,1.24H385.27c-1.14-1.38-.8-2.6-.8-3.72q0-61.24,0-122.47c0-1.49-.22-3-.33-4.47a1.78,1.78,0,0,0-1.49-1.9c-1.6.8-1.44,2.81-2.43,4.07-2.56,3.28-4.16,7.13-6.07,10.77-2.81,5.34-5.78,10.59-8.68,15.86s-5.34,10.55-8.76,15.41a3.82,3.82,0,0,0-.93,3.23,7.05,7.05,0,0,0-1.6,2.47C351.89,223.79,350.7,226.73,349.49,229.66Z"/><path class="cls-1" d="M349.49,229.66c1.21-2.93,2.4-5.87,4.65-8.21C353.88,223.39,350.94,228.57,349.49,229.66Z"/><path class="cls-1" d="M343.38,241.61c.24-1.82.08-3.86,2.43-4.57A17.85,17.85,0,0,1,343.38,241.61Z"/><path class="cls-1" d="M340.71,246.41c.47-1.56,0-3.62,2.2-4.27C341.91,243.43,342.21,245.39,340.71,246.41Z"/><path class="cls-1" d="M346.42,235.59a3.64,3.64,0,0,1,2.19-3.67C348.71,233.64,347.31,234.46,346.42,235.59Z"/><path class="cls-1" d="M36.48,114.9c-1.48,3.57-.06,7.66-.91,11.78H0v-39H35.47c1.12,3.95-.75,8.34,1.45,11.87a7.08,7.08,0,0,0,3.31.37l80.22,0c1.39,0,2.87-.27,4.17,1.09v12.39c-1.36,1.1-2.88,1-4.37,1H40A7.34,7.34,0,0,0,36.48,114.9Z"/><path class="cls-2" d="M1199.5,217.93a22.07,22.07,0,0,0,17.59,9.53,23.77,23.77,0,0,0,13.33-3,19.58,19.58,0,0,0,7.23-7.07c1.6-2.8,3.28-5.62,3.73-8.74a70.15,70.15,0,0,0,.05-19.36,6,6,0,0,0-.49-2.16c-2.35-4.1-3.76-8.8-8.37-12.23-2.3-1.11-5.16-2.35-8-3.53-6.17-2.54-11.62-.52-16.9,1.7a18.82,18.82,0,0,0-9.48,9.47,36.81,36.81,0,0,0-2,28.3A24.18,24.18,0,0,0,1199.5,217.93Z"/><path class="cls-2" d="M1365,195.38a11.21,11.21,0,0,0,9.75-2.46A11.22,11.22,0,0,1,1365,195.38Z"/><path class="cls-2" d="M1357.81,192.73c.65.65,1.25,1.55,2.17,1.82C1359.06,194.28,1358.45,193.38,1357.81,192.73Z"/><path class="cls-2" d="M1139.59,180c-2.09-5-6.65-7.44-12.49-6.64-1,.83-2.17,1.53-2.17,3.09,0,4.07,0,8.13,0,12.17,3,1.88,9.56,1.77,12,0S1140.66,182.58,1139.59,180Z"/><path class="cls-2" d="M1124.38,208c-.65,6.44-.18,12.56-.34,19.1a59.41,59.41,0,0,0,17,0c2-2.1,4.64-3.29,5.43-6.11a16.4,16.4,0,0,0-.19-8C1140.16,206,1132.42,207.36,1124.38,208Z"/><path class="cls-2" d="M1356.12,166.32a1.91,1.91,0,0,1,1-.49A1.91,1.91,0,0,0,1356.12,166.32Z"/><path class="cls-2" d="M1351.14,182.79a1.14,1.14,0,0,1,.08-1.22A1.14,1.14,0,0,0,1351.14,182.79Z"/><path class="cls-2" d="M1365.11,176.73a4.81,4.81,0,0,0,2.57-.54,3.76,3.76,0,0,0,.75-2.78,3.27,3.27,0,0,0-3.38-1.1C1364.17,173.83,1364,175.3,1365.11,176.73Z"/><path class="cls-2" d="M1351.22,175.78a1.18,1.18,0,0,0-.26.69A1.18,1.18,0,0,1,1351.22,175.78Z"/><path class="cls-2" d="M1379.9,187.55a5.56,5.56,0,0,0,1.49-2.75A5.57,5.57,0,0,1,1379.9,187.55Z"/><path class="cls-2" d="M1351.19,177.46l0,4.12c1.12.37.74,1,.24,1.58h0l.27,1.42c1.42,1.14,2.14,2.76,3.06,4.45,1,.56,2.46.82,2.28,2.4,1.71.91,3.25,1.62,4.19,3.11l2.07.38c1.2-1.06,2.44.21,3.69-.08,2.3-.54,4.83-.28,6.71-2.21.36-.37,1-1,1.7-.25l3.61-3.73c-.48-2.17.89-3.39,2.36-4.55l.22-2a8.19,8.19,0,0,1,0-5.71h0l-.28-2.45c-2.26-2.21-3.26-5.48-6-7.25-3.84-2.49-7.72-4.81-12.61-2.61a10.06,10.06,0,0,1-5.13,1.25c7-4.68,13.6-3.58,18.62.93-5-4.51-11.59-5.61-18.62-.93l-.53.5c.24,1.22-.21,1.75-1.46,1.47h0a5.82,5.82,0,0,0-1.64,2.07c.34,1,.15,1.35-.79,1.6h0l-1.11,1.42c.43.46.33.68-.3.66l-.37,2.51C1352,176.28,1352.22,176.95,1351.19,177.46Zm8.4-9.49c4.55-.54,8.89-2.13,12.79,1.64,2,1.92,2.52,5.73.62,7.83a8.56,8.56,0,0,0-1.91,3.34c.19,3.09,3.44,4.76,3.47,8-1.43,1.82-3.22,1.06-5.11.8a25.55,25.55,0,0,0-3.85-6.71c-1.46-.15-.76,1.39-1.59,1.65-.39,1.78.81,4.05-1.62,5.19-.83.2-1.66.42-2.26-.46l-.53-.54c-.14-.08-.38-.16-.38-.25C1359.09,181.7,1358.64,175,1359.59,168Z"/><path class="cls-2" d="M1031.11,218.3a8.14,8.14,0,0,1-.42.7A8.14,8.14,0,0,0,1031.11,218.3Z"/><path class="cls-2" d="M1353.57,169.66a1.84,1.84,0,0,1,.43-.29A1.84,1.84,0,0,0,1353.57,169.66Z"/><path class="cls-2" d="M1381.84,181.41a8,8,0,0,0,0-4.28A8,8,0,0,1,1381.84,181.41Z"/><path class="cls-2" d="M671.43,235.41q-5.89-8.14-11.76-16.3-5.51-7.64-11-15.29c-3-4.07-6-8.05-8.89-12.2-1.72-2.52-4.57-4.54-4.11-8.38,3.27-4.46,6.59-9.08,10-13.64s7.4-9.17,10.66-14c3.54-5.3,7.64-10.16,11.27-15.39,3.52-5.07,7.57-9.77,11.15-14.8,3-4.24,6.49-8.16,9.26-12.59.58-.93,1.48-1.65.91-2.86s-1.62-1.26-2.76-1.26q-23.62,0-47.24,0a5.71,5.71,0,0,0-5.05,2.6c-3.73,5.36-7.66,10.58-11.51,15.86l-5.82,8L607.94,147a16.12,16.12,0,0,1-3.79-3.7q-5.36-7.58-10.79-15.11c-3.1-4.28-6.27-8.5-9.4-12.75-1-1.33-1.86-2.75-2.94-4a6.87,6.87,0,0,0-5.54-2.79c-15.33.09-30.66.06-46,.06-1.63,0-3.26-.07-3.63,2.16a12.54,12.54,0,0,0,2.16,3.82c4.49,5.82,8.89,11.71,13.3,17.6,3.12,4.17,6.18,8.38,9.31,12.53,3.58,4.75,7.23,9.46,10.81,14.21,3,4,6,8.1,9,12.13,2.77,3.7,5.65,7.32,8.33,11.08a4.07,4.07,0,0,1-.17,4.93c-2.61,3.52-5.13,7.1-7.65,10.68-4.95,7-10.17,13.82-15.07,20.88-3.15,4.53-6.54,8.94-9.77,13.43-5.46,7.59-11.12,15-16.49,22.69-1.46,2.08-3.62,3.81-4.19,6.49a5.22,5.22,0,0,0,3.62,1.08q23.74,0,47.49,0a4.56,4.56,0,0,0,4.38-2.34,43.82,43.82,0,0,1,3.7-5.26c5.82-8.11,11.43-16.37,17.33-24.41,1.69-2.31,2.63-5.5,6.12-6.57,1.93,2.61,3.91,5.34,5.93,8,3.27,4.37,6.33,8.89,9.44,13.35q4.24,6.08,8.51,12.17c1.51,2.15,2.45,5.08,6.17,5,16.16-.14,32.32-.07,48.49-.07,1.11,0,2.21,0,2.68-1.72-1.36-3.33-4.17-6-6.25-9.15C679.35,246,675.3,240.77,671.43,235.41Z"/><path class="cls-2" d="M872.45,216.8c5,7.35,12.53,10.16,21.27,9.53,1.75-.13,3.39-1.37,5.16-1.7,4-.75,7-3.41,9.12-6.34a29.65,29.65,0,0,0,5.49-14.64c.79-7.87-.33-15.4-4.61-22.3-4.05-6.54-10-9.25-17.46-9.3-4.85,0-9.58.42-13.88,3.54a9.52,9.52,0,0,1-1.41,1.71,17.21,17.21,0,0,0-6.66,11.27c-.82,5.53-2.21,11-.85,16.87C869.55,209.42,870.21,213.54,872.45,216.8Z"/><path class="cls-2" d="M1351.61,172.57c0-.11.2-.17.49-.17C1351.82,172.4,1351.66,172.46,1351.61,172.57Z"/><path class="cls-2" d="M1032.41,184.28a5.35,5.35,0,0,1-.44-1A5.34,5.34,0,0,0,1032.41,184.28Z"/><path class="cls-2" d="M981.74,172c-5.58,1.4-9.33,5-12.32,9.4-3.42,5-4,11.1-4.15,16.9a35.72,35.72,0,0,0,3.21,16.21,21.27,21.27,0,0,0,15,12.19,21.94,21.94,0,0,0,19.27-4.16,23.09,23.09,0,0,0,8.58-13.81,36.34,36.34,0,0,0,.59-10c.44-6.94-.92-13.38-5.09-19.22a20,20,0,0,0-10.22-7.35C991.71,170.46,986.82,170.7,981.74,172Z"/><path class="cls-2" d="M1032,183.25a4.85,4.85,0,0,1-.2-1.12A4.85,4.85,0,0,0,1032,183.25Z"/><path class="cls-2" d="M1030.7,219c-.15.23-.31.46-.47.68C1030.39,219.46,1030.55,219.23,1030.7,219Z"/><path class="cls-3" d="M750.34,190.87a123.72,123.72,0,0,0-3.5-36.52c-.56-2.33-.61-4.78-1.56-7-1.38-3.29-2.23-6.77-3.36-10.14-.77-2.29-2.1-4.31-2.71-6.56a36.8,36.8,0,0,0-3.61-8.59c-3.56-6.18-6.83-12.53-11.09-18.36a185.53,185.53,0,0,0-14.19-17.23,147.15,147.15,0,0,0-11.52-10.63A141.53,141.53,0,0,0,679.3,62.16c-3.53-2.14-7.42-3.61-11-5.63a89.75,89.75,0,0,0-15.53-6.42c-4.25-1.44-8.76-2.45-13.15-3.58-8.84-2.28-17.86-2.79-26.82-3.72-10.48-1.09-20.9.88-31.23,2.36-5.25.75-10.46,2.41-15.65,3.84-5.79,1.6-11.19,4.06-16.75,6.13a39.25,39.25,0,0,0-6.7,3.11c-3.37,2.06-6.81,4-10.23,5.95a86.9,86.9,0,0,0-10,6.83c-8.11,6.16-16.1,12.54-22.44,20.69-3.7,4.76-7.72,9.25-11.06,14.32-2.23,3.37-4.31,6.83-6.31,10.3a80.25,80.25,0,0,0-6,12.16c-1.05,2.85-2.07,5.77-3.37,8.49a52.26,52.26,0,0,0-3.4,10.54c-1.33,5.62-3.25,11.15-3.49,17-.22,5.54-1.8,10.93-1.74,16.54.09,8.39-.1,16.79,1.68,25,.65,3,0,6.19,1.22,9.11,1.91,4.7,2.32,9.79,4,14.6,1.09,3.18,2.13,6.47,3.45,9.52a167,167,0,0,0,9,18.4A176.2,176.2,0,0,0,494.65,274c4.88,6.54,10.83,12.16,16.72,17.79a83,83,0,0,0,9.07,7.75c4.28,3,8.63,6,13.13,8.77a145.52,145.52,0,0,0,16.13,8.51,118.64,118.64,0,0,0,17,6.08c2.76.77,5.53,1.56,8.29,2.35h64.5A39.25,39.25,0,0,0,645,324c5.7-2.2,11.63-3.65,17.28-6.07,4.57-2,9-4.15,13.42-6.37a100.26,100.26,0,0,0,14.93-9.29,146.22,146.22,0,0,0,29.28-28.06c3.28-4.26,6.2-8.75,9.17-13.21,2.18-3.29,3.85-6.9,5.74-10.36a110.09,110.09,0,0,0,6.08-13.23,181.46,181.46,0,0,0,6-20.19C749.18,208.52,749.81,199.66,750.34,190.87Zm-63.76,71.51c-16.16,0-32.32-.07-48.49.07-3.73,0-4.66-2.9-6.17-5q-4.27-6.07-8.51-12.17c-3.11-4.47-6.17-9-9.44-13.35-2-2.7-4-5.43-5.93-8-3.49,1.07-4.42,4.25-6.12,6.57-5.9,8-11.5,16.31-17.33,24.41a43.82,43.82,0,0,0-3.7,5.26,4.56,4.56,0,0,1-4.38,2.34q-23.74-.07-47.49,0a5.22,5.22,0,0,1-3.62-1.08c.57-2.68,2.73-4.41,4.19-6.49,5.37-7.65,11-15.1,16.49-22.69,3.24-4.5,6.62-8.9,9.77-13.43,4.9-7.05,10.12-13.87,15.07-20.88,2.53-3.58,5-7.16,7.65-10.68a4.07,4.07,0,0,0,.17-4.93c-2.68-3.76-5.56-7.38-8.33-11.08-3-4-6-8.11-9-12.13-3.58-4.76-7.23-9.46-10.81-14.21-3.13-4.16-6.19-8.37-9.31-12.53-4.41-5.89-8.81-11.78-13.3-17.6a12.54,12.54,0,0,1-2.16-3.82c.37-2.23,2-2.16,3.63-2.16,15.33,0,30.66,0,46-.06A6.87,6.87,0,0,1,581,111.4c1.07,1.26,2,2.67,2.94,4,3.13,4.25,6.31,8.48,9.4,12.75q5.45,7.52,10.79,15.11a16.12,16.12,0,0,0,3.79,3.7l8.58-11.83,5.82-8c3.85-5.28,7.78-10.5,11.51-15.86a5.71,5.71,0,0,1,5.05-2.6q23.62,0,47.24,0c1.14,0,2.2.1,2.76,1.26s-.33,1.93-.91,2.86c-2.77,4.43-6.23,8.35-9.26,12.59-3.59,5-7.63,9.73-11.15,14.8-3.63,5.22-7.73,10.08-11.27,15.39-3.26,4.88-7.13,9.34-10.66,14s-6.74,9.18-10,13.64c-.46,3.84,2.38,5.86,4.11,8.38,2.84,4.15,5.93,8.13,8.89,12.2q5.54,7.63,11,15.29,5.88,8.15,11.76,16.3c3.88,5.36,7.93,10.6,11.58,16.1,2.08,3.13,4.89,5.82,6.25,9.15C688.8,262.38,687.69,262.38,686.58,262.38Z"/><path class="cls-1" d="M1424.1,257.09a4.41,4.41,0,0,0-1.4-3.76h-35.08c-2.7,4.12.26,9.17-2.21,13.37H910.35q-39.5,0-79,0c-26.37,0-52.74-.13-78.91.09-2.71,5.43-6,9.68-8.66,14,.56,2.34,2.11,2.06,3.51,2.06h71q281.72,0,563.44,0c1.3,0,2.66-.32,3.87.33,2.23,3.79-.79,8.51,2,12h35.12a3,3,0,0,0,1.43-2.91Q1424.09,274.71,1424.1,257.09Z"/><path class="cls-1" d="M1175.8,218.09a45.31,45.31,0,0,0,7.86,12.58c6.32,7.36,14.51,11.18,23.62,13.49,3.76.95,7.62.57,11.67.75,4.07-.29,8.53.46,12.59-1.35,2.86-1.27,6-1.62,8.8-3.23a57.44,57.44,0,0,0,8.28-5.2,41.65,41.65,0,0,0,14.59-22.72,48.29,48.29,0,0,0,1.14-17.8c-.45-3.29.12-6.76-1.18-9.88-1.93-4.6-3.45-9.39-6.51-13.48a41,41,0,0,0-8.34-8.74,49.13,49.13,0,0,0-10.94-6.16,52.4,52.4,0,0,0-14.53-3.31,49.65,49.65,0,0,0-17.3,1.33,47.12,47.12,0,0,0-10.41,3.76,40.19,40.19,0,0,0-12,9.34c-4.54,5.39-8,11.24-9.25,18.24a10.48,10.48,0,0,1-.54,2.43c-1.81,4-1.77,8.33-1.52,12.47A54.45,54.45,0,0,0,1175.8,218.09ZM1194.36,196a38,38,0,0,1,3.79-13.42,18.82,18.82,0,0,1,9.48-9.47c5.27-2.22,10.73-4.24,16.9-1.7,2.87,1.18,5.73,2.42,8,3.53,4.61,3.43,6,8.13,8.37,12.23a6,6,0,0,1,.49,2.16,70.15,70.15,0,0,1-.05,19.36c-.45,3.11-2.13,5.94-3.73,8.74a19.58,19.58,0,0,1-7.23,7.07,23.77,23.77,0,0,1-13.33,3,22.07,22.07,0,0,1-17.59-9.53,24.18,24.18,0,0,1-3.34-7.08A38.13,38.13,0,0,1,1194.36,196Z"/><path class="cls-1" d="M945.35,214.94c-.39.5-.27.72.37.65,1.58,5.4,4.56,10,8,14.35,4.72,5.9,11.06,9.46,17.89,11.94a47.65,47.65,0,0,0,12.08,2.74,54.52,54.52,0,0,0,28.92-5.52c1.87-.9,4.08-1.88,5.43-3.79a.65.65,0,0,0,1,.17c.35-.26.14-.52-.07-.76l.57-.42c.62.41,1.07.5.95-.5l.59-1c1.15.22,1.61-.33,1.59-1.42l.48-.49c.95.11,1.31-.19.79-1.12a9.65,9.65,0,0,0,2.13-2.46c1.34,0,1.25-.9,1.07-1.83l1.59-2c.89-1.36,1.86-2.67,2.62-4.1.25-.46,1-1.22,0-1.84a4.9,4.9,0,0,1-.32.75,8.14,8.14,0,0,1-.42.7c-.15.23-.31.46-.47.68.16-.23.32-.45.47-.68a8.14,8.14,0,0,0,.42-.7,4.9,4.9,0,0,0,.32-.75l.32-1.57a13,13,0,0,1,1.08-3.54,13,13,0,0,0-1.08,3.54c2.4-1.85,2.78-4.32,2.14-7.09l.35-3c.61,0,.62-.45.62-.85,0-4.16,0-8.32,0-12.48,0-.39.21-1.07-.63-1l-.3-2.62c.59-.71.81-1.38-.24-1.89l-.26-1.41a7.43,7.43,0,0,1-1-1.4,5.34,5.34,0,0,1-.44-1,4.85,4.85,0,0,1-.2-1.12,4.85,4.85,0,0,0,.2,1.12,5.35,5.35,0,0,0,.44,1,7.43,7.43,0,0,0,1,1.4c.77-1.91-.71-2.91-1.65-4.14l-.39-1.53c.28-2.8-1.63-4.53-3.12-6.48l-1-1.05a1.43,1.43,0,0,0-1-1.92l-1-1c-.84-2.61-2-4.93-5.16-5.26l-.57-.54c.67-1.16-.44-1.33-1-1.79a40,40,0,0,0-5.74-3.61,65.24,65.24,0,0,0-8.69-3.77c-.62-.24-1.57-.67-2.21.23l-2.11-.28a12.58,12.58,0,0,0-6.26-2.07,74.54,74.54,0,0,0-16.78,1.6c-6.87,1.43-12.64,4.67-18.3,8.41-.55.37-1.13.81-.57,1.61a48.38,48.38,0,0,0-9.21,11.17c-1.57,2.62-1.9,5.62-3.43,8.17-.65-.05-.72.19-.34.66a35.62,35.62,0,0,0-1.23,8.47c-1,.61-.86,1.82-.9,2.61-.15,3.29-1.18,6.7.81,9.82C943.94,208.34,943.82,211.79,945.35,214.94Zm61.52-35.43c4.16,5.85,5.53,12.29,5.09,19.22a36.34,36.34,0,0,1-.59,10,23.09,23.09,0,0,1-8.58,13.81,21.94,21.94,0,0,1-19.27,4.16,21.27,21.27,0,0,1-15-12.19,35.72,35.72,0,0,1-3.21-16.21c.11-5.81.74-11.9,4.15-16.9,3-4.38,6.73-8,12.32-9.4,5.08-1.28,10-1.52,14.91.19A20,20,0,0,1,1006.87,179.51Z"/><path class="cls-1" d="M844.81,200.21c-.22,2.13,1,4.37,1.17,6.59a39.31,39.31,0,0,0,5,15.88,41.84,41.84,0,0,0,16.53,16.42c5.21,3,11.17,4.25,17,5a47.5,47.5,0,0,0,36.17-9.55,31.37,31.37,0,0,0,7.84-8.26,64.29,64.29,0,0,0,6.32-14.67c2-6.41,1.22-12.68,1.39-19a9.23,9.23,0,0,0-.64-4.41c-1.84-3.47-1.79-7.51-3.86-11-1.47-2.45-3-4.87-4.55-7.24-2.64-3.93-6.36-6.64-10.18-9.25a35.79,35.79,0,0,0-13.31-5.68,42.17,42.17,0,0,0-12.5-.81c-5.26-.2-10.22-.33-14.79,1.17-5.27,1.73-10.57,3.67-14.92,7.43-2.45,2.12-5,4.11-6.91,6.8a49.69,49.69,0,0,0-6.33,11.66C846,187.49,845.48,193.85,844.81,200.21Zm24.67-11.62a17.21,17.21,0,0,1,6.66-11.27,9.52,9.52,0,0,0,1.41-1.71c4.3-3.12,9-3.57,13.88-3.54,7.45,0,13.41,2.75,17.46,9.3,4.27,6.91,5.4,14.43,4.61,22.3A29.65,29.65,0,0,1,908,218.29c-2.15,2.93-5.09,5.59-9.12,6.34-1.77.33-3.41,1.58-5.16,1.7-8.74.63-16.23-2.19-21.27-9.53-2.24-3.26-2.89-7.38-3.82-11.35C867.27,199.61,868.66,194.11,869.48,188.58Z"/><path class="cls-1" d="M1286.13,201.24l-30.37,42c2,1.66,16.4,2.18,22.22,1.07l19.56-26.91a5,5,0,0,1,2.92.16l17.14,26.35c3.63,1.4,21.65,1.15,23.47-.41-4.05-5.71-7.59-11.78-11.65-17.51s-8.14-11.88-11.86-18c-1.8-3-4.6-5.58-4.58-9.62.69-1.07,1.38-2.3,2.21-3.43,3.65-5,7.34-10,11-15,3.12-4.27,6.3-8.5,9.31-12.84,2.46-3.55,5.79-6.6,6.83-11a4.29,4.29,0,0,0-2.69-.79c-5.33,0-10.66,0-16,0a5.5,5.5,0,0,0-4.57,2.62c-.43.61-.8,1.26-1.23,1.86-3.83,5.3-7.58,10.65-11.54,15.85-1.84,2.41-3.37,5.12-6.27,7.29-7.5-8.65-12.25-19-19.3-27.67-7.33.24-14.42-.36-21.79.81,8.07,15,18.34,28.31,27.21,43.05Z"/><path class="cls-1" d="M771.33,171.28a6.56,6.56,0,0,0,5.39,2.66c5.83-.09,11.66,0,17.49,0,1.22,0,2.49-.29,3.65.33.75,1.17.52,2.45.52,3.68q0,31.74,0,63.48c0,3.36.58,3.95,3.89,4,4.75,0,9.5,0,14.25,0,1.89,0,3.89,0,5.09-2.17,0-.8,0-1.71,0-2.63q0-31.24,0-62.48c0-1.4-.18-2.87,1.39-4.16,4.94,0,10.21-.35,15.4.11,4.2.37,6.18-2.07,8.16-4.81,2.58-3.56,4.44-7.62,7.46-10.85.07-1.19.47-2.35-.41-3.64H772.21C770.51,160.32,771.83,165.95,771.33,171.28Z"/><path class="cls-1" d="M1102.82,241.53c0,.33,0,.67,0,1a3,3,0,0,0,1.17,2.38,16.16,16.16,0,0,0,2,.21c12.32,0,24.65-.13,37-.07,3.84,0,7.07-1.92,10.19-3.42a26.06,26.06,0,0,0,9.91-8.18c3.3-4.52,4.57-9.51,5.71-14.7.78-3.54-1.32-6.56-1.85-9.86-.46-2.88-2.21-4.91-4-6.91-2.28-2.48-4.65-4.87-8.13-5.69a4.32,4.32,0,0,1,.2-1c.23-.34.51-.65.75-1,2.82-4,6.18-7.64,6.38-13.08.23-6.37-.38-12.26-4.91-17.27a25.32,25.32,0,0,0-7.42-5.52c-3.75-1.94-7.62-3.64-11.75-3.78-10-.33-20-.09-30-.21-5-.06-4.94.46-5.63,5.41a12.28,12.28,0,0,0,0,1.75Q1102.6,201.58,1102.82,241.53Zm43.62-20.61c-.79,2.82-3.46,4-5.43,6.11a59.41,59.41,0,0,1-17,0c.16-6.54-.31-12.66.34-19.1,8-.61,15.78-2,21.87,5A16.4,16.4,0,0,1,1146.44,220.91Zm-21.51-32.28c0-4,0-8.1,0-12.17,0-1.56,1.21-2.26,2.17-3.09,5.85-.79,10.41,1.65,12.49,6.64,1.07,2.56-.27,7-2.62,8.63S1128,190.52,1124.92,188.63Z"/><path class="cls-1" d="M1351.58,193.51c2.77,3.72,6.89,5.67,11.63,6.2,5,.56,9.85-.05,14.17-2.64a19.4,19.4,0,0,0,6.59-6.55c2.58-4.23,2.67-8.87,2.75-13.65a16.13,16.13,0,0,0-3.23-9.93c-4.4-6.09-10.78-8.7-18.16-9-2.16-.1-3.89,1.36-6,1.69a13.24,13.24,0,0,0-7.88,4.83c-3.47,4-6.15,8.49-5.07,13.41C1346.33,187,1346.33,186.48,1351.58,193.51Zm6.23-.78c.65.65,1.25,1.55,2.17,1.82C1359.06,194.28,1358.45,193.38,1357.81,192.73Zm7.2,2.65a11.22,11.22,0,0,0,9.75-2.46A11.21,11.21,0,0,1,1365,195.38Zm14.89-7.83a5.57,5.57,0,0,0,1.49-2.75A5.56,5.56,0,0,1,1379.9,187.55Zm1.94-6.14a8,8,0,0,0,0-4.28A8,8,0,0,1,1381.84,181.41Zm-30-8.36c.63,0,.72-.2.3-.66-.28,0-.44.06-.49.17,0-.11.2-.17.49-.17l1.11-1.42h0c.94-.25,1.13-.63.79-1.6a1.84,1.84,0,0,0-.43.29,1.84,1.84,0,0,1,.43-.29,5.82,5.82,0,0,1,1.64-2.07h0c1.25.27,1.7-.26,1.46-1.47a1.91,1.91,0,0,0-1,.49,1.91,1.91,0,0,1,1-.49l.53-.5c7-4.67,13.59-3.58,18.62.93-5-4.51-11.59-5.6-18.62-.93a10.06,10.06,0,0,0,5.13-1.25c4.89-2.2,8.77.12,12.61,2.61,2.74,1.77,3.74,5,6,7.25l.28,2.45h0a8.19,8.19,0,0,0,0,5.71l-.22,2c-1.47,1.16-2.84,2.38-2.36,4.55l-3.61,3.73c-.68-.74-1.35-.11-1.7.25-1.88,1.93-4.41,1.67-6.71,2.21-1.25.29-2.49-1-3.69.08l-2.07-.38c-.94-1.49-2.48-2.2-4.19-3.11.18-1.57-1.31-1.84-2.28-2.4-.92-1.69-1.63-3.31-3.06-4.45l-.27-1.42h0c.5-.61.87-1.21-.24-1.58a1.14,1.14,0,0,0-.08,1.22,1.14,1.14,0,0,1,.08-1.22l0-4.12c1-.51.83-1.18.24-1.9Zm-.58,2.72a1.18,1.18,0,0,0-.26.69A1.18,1.18,0,0,1,1351.22,175.78Z"/><path class="cls-1" d="M1044.66,244.38a8.33,8.33,0,0,0,3.75.75q21.62,0,43.24,0a8.2,8.2,0,0,0,4.58-1V227.78a14,14,0,0,0-5.34-.88h-21.5c-1.16,0-2.35.09-3.46-1.2,0-.72,0-1.71,0-2.69q0-31.37,0-62.74a8,8,0,0,0-.89-4.52,3.35,3.35,0,0,0-2.09-.91q-8.37,0-16.74,0a2,2,0,0,0-2.08,2c-.07.91-.1,1.83-.1,2.75q0,41,0,82C1044.08,242.55,1043.83,243.51,1044.66,244.38Z"/><path class="cls-1" d="M1359.6,188.65l.53.54c.6.88,1.43.67,2.26.46,2.43-1.14,1.23-3.42,1.62-5.19.83-.25.12-1.8,1.59-1.65a25.55,25.55,0,0,1,3.85,6.71c1.89.26,3.68,1,5.11-.8,0-3.2-3.28-4.87-3.47-8a8.56,8.56,0,0,1,1.91-3.34c1.9-2.1,1.37-5.92-.62-7.83-3.9-3.76-8.24-2.18-12.79-1.64-1,7-.5,13.73-.37,20.44C1359.22,188.49,1359.47,188.57,1359.6,188.65Zm8.83-15.25a3.76,3.76,0,0,1-.75,2.78,4.81,4.81,0,0,1-2.57.54c-1.13-1.43-.94-2.9-.06-4.42A3.27,3.27,0,0,1,1368.43,173.41Z"/></g></g></g></g></svg>